<?xml version="1.0" standalone="no"?>
<!DOCTYPE svg PUBLIC "-//W3C//DTD SVG 20010904//EN"
 "http://www.w3.org/TR/2001/REC-SVG-20010904/DTD/svg10.dtd">
<svg version="1.0" xmlns="http://www.w3.org/2000/svg"
 width="2859.000000pt" height="2859.000000pt" viewBox="0 0 2859.000000 2859.000000"
 preserveAspectRatio="xMidYMid meet">
<metadata>
Created by potrace 1.14, written by Peter Selinger 2001-2017
</metadata>
<g transform="translate(0.000000,2859.000000) scale(0.100000,-0.100000)"
fill="#000000" stroke="none">
<path d="M13798 26685 c-2 -1 -32 -6 -68 -9 -197 -21 -452 -78 -623 -140 -127
-46 -259 -109 -246 -117 8 -4 50 -15 94 -24 226 -46 571 -150 740 -224 11 -5
49 -21 85 -36 369 -156 764 -411 1039 -670 104 -98 144 -140 246 -256 139
-157 412 -579 630 -973 133 -241 330 -640 422 -856 30 -70 42 -97 78 -185 21
-49 44 -105 52 -123 8 -18 29 -72 47 -120 19 -48 61 -159 96 -247 34 -88 85
-225 115 -305 29 -80 58 -156 64 -170 5 -14 62 -164 126 -335 64 -170 120
-319 125 -330 5 -11 43 -104 84 -206 157 -391 310 -708 469 -974 54 -90 168
-264 189 -290 5 -5 28 -35 51 -66 147 -196 207 -266 382 -444 189 -193 398
-365 650 -534 90 -61 167 -111 170 -111 4 0 20 -9 35 -20 58 -41 413 -224 570
-293 336 -148 836 -306 1150 -363 14 -3 33 -7 42 -10 9 -3 25 -6 35 -8 48 -9
90 -17 113 -21 85 -17 421 -72 490 -81 14 -1 39 -5 55 -8 17 -3 53 -8 80 -11
47 -5 110 -14 145 -20 9 -2 46 -6 82 -9 37 -4 75 -8 85 -10 10 -2 47 -7 83
-10 36 -4 76 -9 90 -11 14 -3 54 -7 90 -10 36 -3 81 -8 100 -10 19 -2 62 -7
95 -10 33 -3 76 -7 95 -10 19 -2 67 -7 105 -10 39 -3 88 -8 110 -10 22 -2 72
-7 110 -10 67 -6 104 -10 204 -21 25 -2 79 -7 120 -10 42 -2 87 -7 101 -9 14
-2 54 -6 90 -10 149 -12 218 -19 320 -29 25 -3 77 -8 115 -11 39 -3 88 -8 110
-10 22 -2 72 -7 110 -10 118 -10 157 -14 225 -20 159 -14 189 -17 255 -21 39
-3 95 -7 125 -9 54 -5 159 -11 315 -20 123 -7 613 -7 722 1 81 5 371 49 448
68 145 35 198 49 299 80 373 115 715 293 1038 538 115 87 114 90 -17 59 -44
-11 -96 -22 -115 -25 -19 -3 -71 -12 -114 -21 -44 -8 -91 -17 -105 -19 -14 -3
-45 -7 -69 -11 -50 -8 -68 -10 -147 -19 -33 -4 -67 -9 -75 -11 -8 -2 -51 -7
-95 -10 -44 -4 -87 -8 -95 -10 -8 -2 -53 -7 -100 -10 -47 -4 -101 -8 -120 -10
-264 -25 -974 -25 -1165 0 -16 2 -70 7 -120 10 -49 3 -106 8 -125 10 -19 2
-66 6 -105 10 -104 9 -148 14 -280 31 -66 8 -140 17 -165 20 -25 3 -56 7 -70
9 -14 3 -47 7 -75 10 -27 4 -57 8 -65 10 -8 2 -35 7 -60 10 -62 9 -288 46
-355 59 -11 2 -40 7 -65 12 -25 4 -47 8 -50 9 -19 4 -89 18 -105 21 -17 3
-220 47 -280 60 -11 2 -32 6 -47 9 -39 7 -148 32 -244 56 -45 11 -92 22 -104
24 -192 37 -1067 282 -1390 389 -303 101 -653 252 -871 376 -41 24 -92 52
-114 65 -108 59 -395 249 -530 350 -225 168 -401 320 -611 530 -325 325 -599
677 -851 1095 -22 36 -53 90 -70 120 -17 30 -52 93 -78 140 -84 150 -138 268
-296 645 -60 143 -113 268 -119 277 -5 10 -10 22 -10 28 0 5 -12 35 -26 67
-14 32 -30 67 -34 78 -5 11 -63 151 -130 310 -67 160 -134 318 -150 353 -17
35 -30 65 -30 68 0 14 -227 510 -320 699 -152 308 -355 671 -437 780 -5 6 -35
51 -68 100 -33 50 -63 95 -67 100 -5 6 -54 71 -109 145 -90 119 -120 158 -204
259 -98 118 -299 318 -387 387 -112 87 -349 217 -548 302 -300 127 -577 199
-880 228 -58 5 -507 14 -512 9z"/>
<path d="M14126 25586 c-48 -204 -265 -796 -396 -1081 -124 -271 -369 -726
-481 -893 -16 -24 -29 -46 -29 -49 0 -17 -411 -617 -547 -800 -178 -238 -273
-363 -288 -379 -5 -6 -26 -30 -45 -54 -75 -94 -224 -275 -229 -280 -3 -3 -38
-43 -77 -90 -76 -90 -81 -96 -177 -205 -118 -132 -186 -208 -267 -295 -371
-399 -801 -828 -1025 -1024 -379 -331 -994 -697 -1495 -891 -52 -20 -124 -48
-160 -62 -291 -113 -801 -238 -1135 -278 -27 -4 -61 -8 -75 -10 -14 -3 -56 -7
-95 -11 -38 -3 -81 -7 -95 -10 -140 -22 -868 -22 -1110 0 -14 2 -63 6 -110 10
-47 4 -96 9 -110 11 -29 4 -100 12 -190 20 -36 3 -81 8 -100 10 -19 2 -64 7
-100 10 -70 6 -134 13 -190 20 -19 2 -69 7 -110 10 -41 4 -86 8 -100 10 -14 2
-63 7 -110 11 -47 3 -96 8 -110 9 -14 1 -63 5 -110 9 -47 4 -101 9 -120 11
-19 3 -75 7 -125 10 -49 3 -110 8 -135 10 -314 26 -1196 26 -1395 0 -16 -2
-68 -7 -113 -10 -115 -8 -177 -16 -332 -42 -78 -12 -170 -31 -330 -68 -27 -6
-164 -43 -235 -64 -99 -28 -221 -75 -280 -106 -395 -212 -814 -582 -1053 -930
-237 -346 -407 -750 -467 -1110 -3 -16 -7 -41 -10 -55 -15 -78 -17 -104 -20
-197 -1 -57 -2 -103 0 -103 1 0 31 37 67 83 77 96 306 330 463 471 376 340
970 675 1385 781 8 2 40 11 70 19 30 8 66 17 80 20 121 24 244 45 285 50 28 4
66 8 85 11 19 2 69 7 110 11 41 3 91 8 110 10 253 25 1349 25 1511 -1 13 -2
62 -6 109 -10 85 -6 130 -10 218 -21 52 -6 97 -11 187 -19 33 -3 71 -7 85 -10
14 -2 48 -7 75 -10 28 -3 64 -8 80 -10 17 -2 73 -9 125 -15 52 -6 106 -13 120
-16 14 -2 61 -8 105 -14 87 -10 305 -39 345 -45 14 -2 48 -7 75 -10 28 -4 61
-8 75 -10 14 -2 66 -9 115 -15 50 -6 101 -13 115 -15 14 -2 48 -6 75 -10 28
-3 66 -8 85 -10 88 -11 312 -35 375 -41 39 -3 84 -7 100 -9 186 -24 874 -24
1080 -1 17 2 57 6 90 10 198 23 555 106 790 186 83 27 157 53 165 57 8 3 17 7
20 8 117 40 377 164 550 263 156 89 545 345 580 382 3 3 48 39 100 80 52 41
97 77 100 80 3 3 41 36 85 74 95 83 434 422 521 521 69 79 142 162 160 185
217 261 463 586 624 825 41 61 77 112 80 115 11 10 851 1276 1125 1695 293
450 374 574 462 715 112 180 155 256 238 425 190 389 299 747 359 1186 25 182
26 540 0 759 -11 101 -36 264 -40 272 -12 19 -21 3 -38 -66z"/>
<path d="M15217 19746 c-64 -30 -128 -85 -163 -140 l-29 -46 -458 0 -459 0
-71 -39 c-128 -69 -250 -133 -607 -319 -69 -35 -165 -86 -215 -112 -49 -26
-151 -79 -225 -117 l-135 -69 -110 2 c-207 3 -204 3 -222 23 -128 137 -189
175 -297 186 -233 25 -419 -147 -411 -381 3 -107 33 -181 101 -251 78 -79 143
-105 269 -106 88 -1 107 3 158 26 60 27 135 95 162 147 8 16 19 31 23 31 4 1
102 2 217 4 l210 2 120 62 c66 35 179 94 250 131 225 119 297 156 420 220 66
34 156 82 200 105 44 23 119 63 167 89 l87 46 415 0 414 0 23 -37 c67 -111
218 -185 359 -177 99 6 223 85 284 182 102 161 53 394 -105 502 -69 47 -112
58 -224 58 -82 0 -109 -4 -148 -22z"/>
<path d="M16775 19539 c-65 -25 -133 -76 -178 -135 -23 -30 -49 -54 -57 -54
-301 -7 -370 -9 -397 -15 -18 -4 -50 -23 -73 -42 l-40 -35 0 -1446 0 -1447 44
-42 44 -43 896 0 896 0 0 -1213 0 -1213 -110 1 -111 0 -30 45 c-43 63 -67 87
-117 115 -194 108 -430 37 -527 -158 -40 -80 -47 -130 -33 -233 15 -113 97
-222 203 -271 54 -25 71 -28 165 -28 92 0 112 4 161 27 68 31 131 86 164 142
l24 41 220 -1 219 -1 47 47 47 48 -5 1408 c-3 775 -8 1427 -11 1449 -13 76
-62 105 -184 110 -48 2 -446 4 -884 4 l-798 1 0 1214 0 1214 101 -3 c87 -2
103 -5 112 -21 17 -30 88 -98 137 -131 58 -39 102 -53 178 -57 149 -8 244 37
340 161 77 99 74 312 -6 423 -26 37 -104 103 -147 126 -68 35 -214 42 -290 13z"/>
<path d="M11327 19068 c-64 -13 -120 -48 -189 -119 -76 -77 -100 -134 -102
-247 l-1 -64 -170 -121 c-93 -66 -219 -155 -280 -198 -60 -43 -126 -89 -145
-103 -81 -58 -590 -418 -648 -458 -34 -24 -68 -48 -75 -53 -7 -6 -61 -44 -120
-85 -60 -41 -135 -94 -167 -118 l-60 -44 -57 22 c-147 55 -295 19 -413 -99
-75 -75 -92 -123 -89 -265 1 -87 5 -114 25 -155 27 -59 105 -138 166 -169 125
-62 298 -44 412 43 68 52 119 153 131 261 8 76 14 96 34 111 9 6 124 88 256
182 132 93 281 198 330 234 50 35 307 217 573 405 l482 342 51 -20 c182 -72
402 15 484 191 18 41 23 68 24 152 1 90 -2 108 -24 156 -67 142 -183 221 -335
226 -30 0 -72 -2 -93 -7z"/>
<path d="M15368 18886 c-73 -20 -151 -78 -199 -146 l-43 -60 -655 0 -656 0
-47 -45 -46 -45 0 -272 0 -273 -545 -3 -546 -2 -15 27 c-29 56 -121 137 -181
161 -41 17 -178 23 -245 10 -102 -18 -191 -92 -245 -203 -44 -89 -45 -219 -2
-317 7 -16 15 -28 19 -28 5 0 8 -6 8 -13 0 -33 129 -132 203 -157 43 -13 156
-16 208 -5 82 18 172 83 224 163 l28 42 571 1 c622 1 696 3 752 22 75 24 84
66 86 395 l0 222 543 0 542 0 46 -59 c55 -70 121 -115 200 -135 320 -83 573
229 433 534 -38 83 -142 166 -233 185 -61 14 -160 14 -205 1z"/>
<path d="M17620 18890 c-108 -14 -232 -108 -277 -209 -37 -83 -43 -204 -13
-291 25 -75 52 -114 114 -165 106 -86 277 -103 411 -41 59 28 99 63 143 129
l33 47 143 0 142 0 100 -126 c54 -70 104 -132 109 -138 6 -6 73 -90 149 -186
75 -96 145 -184 154 -195 9 -11 42 -52 72 -90 30 -39 169 -214 309 -390 140
-176 335 -421 433 -545 98 -124 204 -258 236 -297 l58 -73 -1 -151 0 -151 -54
-36 c-221 -149 -211 -511 17 -635 114 -62 254 -68 359 -17 136 67 196 164 208
335 6 76 5 83 -28 150 -41 85 -74 125 -132 162 -28 17 -45 35 -45 48 -1 11 -3
99 -5 195 -2 96 -8 190 -14 208 -9 29 -77 134 -123 187 -15 18 -197 246 -260
326 -46 59 -288 363 -301 379 -7 8 -62 78 -122 155 -60 77 -114 145 -120 151
-5 6 -57 71 -115 145 -84 106 -260 329 -333 419 -7 9 -75 94 -152 190 -161
202 -209 257 -247 276 -35 18 -88 23 -284 23 l-161 1 -28 43 c-59 89 -157 152
-255 162 -30 4 -59 7 -65 9 -5 1 -30 -1 -55 -4z"/>
<path d="M27529 18773 c-1 -10 -3 -47 -4 -83 -9 -173 -15 -287 -20 -324 -2
-23 -7 -68 -10 -101 -3 -33 -12 -98 -20 -145 -8 -47 -17 -103 -20 -125 -50
-335 -230 -838 -407 -1142 -26 -45 -48 -84 -48 -87 0 -14 -173 -262 -249 -356
-129 -160 -254 -288 -516 -524 -42 -39 -86 -78 -98 -89 -12 -10 -33 -28 -47
-40 -14 -12 -66 -56 -115 -97 -50 -41 -92 -77 -95 -80 -15 -16 -345 -272 -386
-300 -12 -8 -96 -67 -186 -131 -182 -129 -426 -292 -593 -395 -110 -67 -560
-340 -593 -359 -31 -18 -176 -106 -241 -146 -34 -21 -64 -39 -66 -39 -17 0
-714 -445 -905 -577 -323 -224 -604 -470 -850 -744 -47 -52 -87 -96 -90 -99
-12 -11 -129 -160 -182 -230 -126 -170 -253 -386 -370 -628 -44 -92 -84 -175
-89 -184 -54 -105 -218 -595 -244 -727 -1 -9 -8 -36 -15 -61 -7 -25 -14 -56
-17 -70 -2 -14 -9 -45 -14 -70 -6 -25 -13 -56 -15 -70 -2 -14 -7 -36 -9 -50
-13 -63 -16 -77 -20 -105 -16 -90 -25 -144 -29 -180 -6 -47 -24 -185 -31 -235
-23 -179 -24 -1287 -1 -1575 2 -22 7 -87 11 -145 4 -58 8 -121 10 -140 2 -19
6 -73 10 -120 4 -47 8 -96 11 -110 2 -14 6 -65 10 -115 3 -49 7 -97 9 -106 2
-8 6 -53 10 -100 3 -46 8 -100 10 -119 4 -37 11 -115 20 -220 3 -35 8 -78 10
-95 2 -16 6 -66 10 -110 3 -44 7 -93 9 -110 2 -16 7 -70 11 -119 4 -49 8 -96
10 -105 1 -9 6 -54 9 -101 4 -47 9 -99 11 -116 2 -16 7 -66 10 -110 4 -43 8
-97 10 -119 3 -22 6 -67 9 -100 5 -58 13 -148 21 -210 2 -16 6 -66 10 -110 3
-44 8 -91 10 -105 3 -14 7 -56 10 -95 4 -38 8 -81 10 -95 2 -14 6 -43 9 -65 3
-22 8 -62 11 -90 9 -85 16 -139 20 -155 2 -8 7 -35 10 -60 17 -135 68 -353
133 -570 118 -395 372 -867 626 -1165 131 -153 421 -443 432 -432 3 2 -23 73
-57 158 -107 268 -265 727 -284 828 -2 13 -9 38 -15 56 -6 18 -13 41 -15 51
-2 10 -13 53 -23 94 -20 75 -58 243 -67 290 -3 14 -7 36 -10 50 -13 63 -46
243 -51 285 -2 17 -8 55 -13 85 -6 30 -12 75 -15 100 -4 25 -8 54 -10 65 -2
11 -7 51 -11 88 -3 37 -8 76 -10 85 -2 10 -6 49 -10 87 -3 39 -8 84 -10 100
-2 17 -7 66 -10 110 -3 44 -8 94 -10 110 -6 38 -13 155 -22 360 -15 334 -7
1488 12 1735 2 25 6 95 10 155 3 61 8 126 10 145 2 19 6 73 9 120 4 47 9 96
11 110 2 14 7 59 10 100 3 41 8 89 10 105 2 17 7 57 10 90 11 109 15 149 25
225 5 41 12 96 15 122 5 51 13 109 20 148 2 14 7 45 10 70 50 374 203 903 364
1265 10 22 29 65 42 95 23 54 170 351 188 380 5 8 42 71 82 140 115 200 337
524 435 636 11 12 33 39 49 60 17 21 46 57 65 79 19 22 49 55 65 75 171 199
474 490 720 691 50 40 96 78 102 84 14 11 39 30 98 75 22 16 45 34 52 39 13
12 390 261 415 276 109 62 1251 823 1448 965 283 203 530 397 700 548 121 108
554 543 630 632 143 168 336 443 398 567 56 110 187 536 208 673 3 19 9 51 14
70 18 70 25 211 25 485 0 317 -4 377 -41 554 -77 373 -206 693 -397 983 -63
95 -76 109 -78 81z"/>
<path d="M11265 18232 c-46 -5 -135 -32 -164 -50 -44 -28 -97 -84 -132 -142
l-34 -55 0 -130 c0 -152 6 -167 94 -256 89 -88 163 -115 321 -114 l75 1 159
-186 c195 -228 263 -305 344 -391 73 -77 81 -80 246 -83 98 -3 100 -3 120 -32
39 -55 118 -123 174 -151 51 -24 68 -27 157 -26 87 0 107 3 156 26 78 37 145
106 182 186 27 58 31 77 31 156 1 77 -3 98 -27 148 -71 154 -197 231 -368 223
-124 -6 -224 -63 -301 -175 -19 -28 -69 -40 -118 -30 -44 10 -98 65 -317 325
-196 233 -206 249 -194 304 17 76 -3 189 -47 267 -29 52 -107 124 -164 151
-47 21 -144 39 -193 34z"/>
<path d="M14379 18117 c-149 -42 -253 -172 -266 -334 -15 -182 91 -334 271
-387 94 -28 220 -11 294 39 39 27 152 134 152 144 0 4 92 7 205 9 200 2 205 2
222 -19 115 -143 206 -191 353 -185 167 6 306 120 343 281 38 165 -23 320
-160 408 -94 62 -251 72 -355 25 -54 -25 -158 -110 -158 -129 0 -5 -8 -18 -17
-29 -16 -19 -29 -20 -223 -20 l-205 0 -43 55 c-95 124 -266 182 -413 142z"/>
<path d="M16930 17725 c-127 -21 -215 -87 -272 -203 -72 -145 -33 -334 89
-442 68 -60 139 -83 253 -84 88 -1 101 2 160 31 70 34 132 89 156 136 l16 29
351 -5 c194 -3 353 -6 354 -6 1 -1 40 -39 86 -86 113 -114 139 -125 287 -122
133 3 158 12 242 87 85 77 127 178 122 298 -4 89 -29 155 -85 222 -105 126
-310 169 -452 95 -52 -28 -119 -83 -151 -126 -15 -20 -33 -36 -39 -37 -81 -8
-661 3 -697 14 -9 2 -24 19 -35 36 -27 48 -98 111 -158 141 -61 31 -133 38
-227 22z"/>
<path d="M10305 17570 c-125 -13 -228 -88 -288 -209 -30 -61 -32 -73 -32 -166
1 -88 4 -107 28 -155 112 -231 438 -286 609 -102 24 26 52 58 61 72 l17 25
218 0 217 0 0 -602 c0 -594 0 -602 -20 -605 -22 -4 -504 -2 -605 3 l-65 2 -64
69 c-104 111 -200 144 -351 124 -97 -14 -203 -86 -262 -177 -49 -77 -60 -255
-20 -338 91 -188 297 -273 484 -200 55 22 148 98 196 162 15 19 69 22 362 16
105 -2 112 -3 85 -15 -16 -7 -36 -13 -43 -14 -37 -1 -147 -92 -195 -160 -9
-12 -28 -25 -44 -27 -42 -7 -1060 -5 -1225 1 -238 10 -250 16 -163 80 106 78
156 174 157 305 1 187 -99 323 -271 367 -247 62 -476 -114 -473 -364 2 -126
62 -235 177 -319 30 -21 30 -20 36 -203 3 -93 32 -142 102 -174 l28 -13 -58
-18 c-82 -25 -124 -48 -170 -92 -199 -191 -136 -522 118 -623 93 -36 204 -34
290 7 66 32 169 116 169 138 0 7 8 16 18 20 28 11 305 15 1417 20 583 3 1084
7 1113 10 96 9 135 43 147 130 4 26 9 222 10 434 2 212 3 388 4 391 1 6 1505
3 1613 -3 l77 -5 55 -59 c60 -65 153 -121 213 -129 143 -18 246 12 338 98 76
69 115 175 111 304 -5 147 -124 286 -284 330 -122 34 -262 -6 -358 -101 -27
-27 -57 -61 -65 -74 l-15 -24 -935 -2 c-1035 -3 -973 2 -1039 -69 l-35 -37 -1
-427 c-1 -235 -2 -430 -3 -433 -1 -4 -428 -4 -576 0 l-40 1 57 33 c79 44 124
84 157 137 111 180 48 432 -132 527 -17 9 -59 25 -92 34 l-60 18 60 1 c292 8
307 11 365 77 l41 47 -3 806 c-3 779 -4 806 -23 844 -22 43 -56 73 -95 83 -14
3 -164 8 -335 10 -305 4 -310 4 -328 26 -101 125 -170 174 -253 183 -27 3 -53
6 -59 8 -5 1 -37 -1 -70 -4z m342 -2660 c46 -60 101 -108 158 -136 31 -14 57
-30 60 -33 2 -4 -341 -7 -762 -7 l-766 1 -29 40 c-41 58 -91 100 -156 132
l-57 28 90 5 c50 3 393 5 763 5 l673 0 26 -35z"/>
<path d="M13358 17385 c-158 -42 -270 -187 -271 -350 0 -85 7 -119 42 -190 60
-122 166 -186 316 -193 131 -6 181 15 288 120 l82 81 803 1 c442 1 806 -2 808
-5 2 -3 4 -279 4 -613 1 -383 5 -618 11 -634 19 -51 60 -83 124 -99 11 -3 126
-6 255 -8 129 -2 240 -4 247 -4 6 -1 30 -25 53 -53 84 -106 181 -151 324 -150
68 1 88 5 141 32 109 56 183 144 200 240 4 19 7 73 7 119 0 73 -4 91 -31 146
-78 157 -233 232 -413 199 -107 -20 -169 -58 -232 -143 l-41 -56 -150 1 c-82
1 -156 2 -162 3 -10 1 -13 133 -13 625 l0 623 -32 35 c-38 41 -66 57 -111 64
-18 3 -430 7 -916 8 l-885 4 -18 23 c-77 100 -120 135 -211 167 -56 19 -161
22 -219 7z"/>
<path d="M1420 17210 c-6 -3 25 -21 67 -40 220 -94 673 -336 940 -501 109 -67
383 -248 478 -316 131 -93 462 -359 620 -498 17 -15 44 -38 60 -52 309 -267
870 -827 1195 -1193 36 -40 76 -85 90 -100 14 -15 44 -49 67 -76 23 -27 54
-62 68 -79 41 -46 353 -421 421 -505 259 -320 559 -728 686 -930 268 -428 482
-917 626 -1430 38 -136 84 -325 96 -395 3 -16 10 -55 16 -85 6 -30 13 -71 16
-90 2 -19 6 -44 9 -55 2 -11 7 -42 10 -70 4 -27 8 -60 10 -71 10 -63 23 -202
32 -349 14 -210 6 -773 -12 -888 -2 -12 -6 -58 -10 -102 -4 -44 -9 -89 -11
-100 -1 -11 -5 -40 -8 -64 -7 -58 -17 -129 -22 -161 -2 -14 -7 -43 -10 -65 -3
-22 -35 -166 -70 -320 -36 -154 -67 -291 -70 -305 -7 -32 -42 -184 -88 -370
-41 -171 -71 -296 -86 -365 -7 -27 -13 -57 -15 -65 -2 -8 -11 -46 -20 -85 -9
-38 -18 -77 -20 -85 -2 -8 -13 -58 -25 -110 -12 -52 -23 -106 -26 -120 -3 -14
-14 -65 -24 -115 -11 -49 -21 -101 -24 -115 -2 -14 -11 -59 -19 -100 -9 -41
-19 -91 -22 -110 -4 -19 -13 -71 -21 -115 -16 -85 -37 -212 -48 -282 -10 -64
-19 -119 -21 -133 -6 -35 -19 -137 -30 -237 -4 -35 -8 -75 -10 -90 -13 -96
-20 -312 -20 -608 0 -373 2 -405 40 -670 2 -16 9 -57 15 -90 6 -33 13 -73 16
-90 21 -123 82 -281 182 -475 36 -69 70 -135 76 -147 6 -13 14 -23 19 -23 4 0
7 -5 7 -11 0 -6 34 -62 76 -125 165 -249 373 -482 584 -654 30 -25 66 -55 80
-67 14 -13 28 -23 32 -23 3 0 13 -7 21 -15 83 -83 551 -328 753 -394 116 -38
352 -96 360 -88 2 2 -31 44 -74 93 -188 218 -374 470 -477 646 -183 314 -327
631 -391 858 -69 246 -109 446 -121 609 -15 190 -9 649 12 855 2 23 7 73 10
111 4 39 8 88 11 110 2 22 7 63 9 90 5 46 19 158 31 245 2 19 6 44 9 55 2 11
7 43 10 70 6 41 27 162 59 335 34 187 146 654 246 1025 28 105 53 199 55 209
2 10 16 60 31 110 14 50 34 123 44 161 10 39 41 153 70 255 28 102 62 228 76
280 54 206 133 516 138 540 3 14 14 68 26 120 22 100 64 317 74 385 4 23 8 51
11 64 4 22 7 46 20 161 3 25 8 59 10 75 20 135 27 606 11 810 -4 60 -9 112
-11 115 -1 3 -6 32 -9 65 -4 33 -9 72 -12 88 -12 75 -16 98 -30 172 -8 44 -19
95 -24 115 -5 19 -11 46 -14 60 -17 93 -139 476 -186 585 -10 22 -37 85 -60
140 -42 100 -170 356 -233 470 -227 405 -536 816 -922 1224 -175 185 -560 561
-704 687 -25 22 -54 48 -66 59 -11 11 -58 54 -105 95 -46 41 -93 84 -106 95
-33 30 -71 63 -164 146 -78 68 -136 119 -164 144 -14 13 -151 132 -190 165
-16 14 -34 30 -40 36 -6 6 -144 126 -306 268 -162 142 -308 270 -325 285 -16
15 -82 72 -145 127 -150 129 -174 150 -235 204 -52 46 -76 67 -290 250 -478
411 -1009 701 -1550 848 -109 30 -155 41 -215 51 -36 6 -75 13 -87 15 -12 3
-53 8 -90 11 -37 4 -79 8 -93 11 -14 2 -128 6 -255 10 -126 3 -245 7 -262 8
-18 1 -37 -1 -43 -4z"/>
<path d="M18778 16796 c-48 -17 -121 -60 -162 -96 -35 -31 -80 -120 -91 -180
-10 -52 -8 -152 4 -198 18 -63 103 -170 174 -217 29 -19 29 -6 32 -635 2 -228
3 -420 4 -425 0 -6 23 -33 50 -60 94 -97 152 -166 145 -176 -3 -6 -10 -6 -17
-1 -20 16 -101 29 -160 25 -88 -5 -179 -46 -240 -108 -78 -78 -101 -131 -104
-240 -5 -179 47 -278 187 -356 60 -34 96 -42 198 -41 69 0 91 4 139 27 56 28
131 93 170 149 l20 29 174 2 c245 3 303 18 337 87 37 74 18 139 -69 238 -38
43 -192 211 -239 260 -19 21 -64 68 -99 106 -35 38 -90 96 -120 129 l-57 60 2
455 c1 250 2 458 3 461 0 4 19 18 42 33 52 35 91 78 126 141 26 47 28 57 28
170 0 108 -3 125 -25 168 -45 88 -150 175 -233 193 -56 12 -184 12 -219 0z"/>
<path d="M10573 16695 c-105 -24 -211 -95 -249 -167 -11 -21 -24 -28 -61 -34
-27 -4 -365 -8 -752 -8 -618 -1 -705 1 -709 14 -10 30 -122 129 -179 156 -49
24 -72 29 -146 31 -86 2 -127 -7 -205 -43 -48 -22 -124 -102 -152 -159 -22
-44 -25 -63 -25 -160 0 -98 3 -116 26 -165 47 -98 150 -181 253 -205 97 -22
224 1 295 53 44 33 101 89 124 122 l17 25 748 3 747 3 28 -45 c37 -59 77 -92
157 -130 259 -122 554 92 526 381 -21 219 -232 375 -443 328z"/>
<path d="M13758 16694 c-102 -24 -180 -74 -248 -162 -14 -18 -36 -35 -50 -38
-33 -7 -1095 -14 -1137 -7 -18 3 -33 10 -33 17 0 20 -131 137 -178 159 -39 18
-66 22 -157 22 -96 -1 -117 -4 -160 -25 -49 -23 -192 -156 -181 -167 3 -4 2
-11 -4 -18 -22 -27 -31 -175 -16 -262 13 -66 74 -149 152 -203 111 -77 285
-84 395 -14 54 34 149 123 149 139 0 7 15 15 33 18 17 2 289 5 603 6 l571 2
13 -31 c17 -42 101 -115 169 -147 48 -23 70 -27 151 -27 84 -1 101 2 151 27
68 33 142 96 175 149 30 48 53 143 50 211 -9 232 -225 401 -448 351z"/>
<path d="M14725 16469 c-188 -64 -287 -201 -281 -386 3 -80 19 -133 57 -189
31 -45 99 -110 132 -125 l22 -10 0 -1131 0 -1131 -25 -15 c-52 -33 -122 -115
-151 -175 -34 -72 -39 -164 -14 -260 47 -181 239 -296 430 -257 253 51 376
314 256 548 -29 57 -75 107 -122 134 l-39 22 -1 290 c-1 160 -2 413 -4 561 -5
357 -6 1355 -2 1380 2 11 36 52 75 92 101 100 127 157 127 283 0 81 -4 103
-26 150 -46 99 -134 177 -239 212 -54 18 -153 21 -195 7z"/>
<path d="M7883 16021 c-100 -34 -171 -101 -219 -206 -20 -43 -26 -72 -26 -128
0 -161 41 -244 169 -338 29 -22 50 -45 48 -52 -2 -6 -6 -52 -9 -102 -8 -123
-14 -158 -34 -173 -85 -63 -150 -154 -166 -235 -43 -210 67 -402 259 -452 142
-37 284 1 376 102 102 110 133 282 74 408 -25 51 -110 150 -148 171 -26 15
-33 62 -32 193 1 101 3 114 21 123 40 22 124 121 155 184 28 57 32 75 32 147
0 100 -14 146 -63 213 -49 65 -107 113 -168 138 -67 27 -201 31 -269 7z"/>
<path d="M17213 16020 c-93 -33 -166 -102 -212 -199 -23 -49 -26 -68 -25 -156
0 -88 3 -107 28 -159 28 -56 72 -108 148 -171 l36 -30 1 -123 2 -123 -32 -27
c-77 -64 -128 -123 -155 -178 -25 -53 -28 -69 -29 -159 0 -87 3 -107 27 -157
81 -173 271 -257 455 -200 200 63 307 277 241 482 -22 68 -83 148 -145 192
l-43 29 0 137 0 138 60 52 c50 44 116 124 118 142 0 3 6 19 13 35 8 17 13 70
13 125 0 83 -3 102 -26 150 -47 96 -137 175 -229 203 -68 21 -184 19 -246 -3z"/>
<path d="M12425 15150 c-81 -18 -209 -121 -249 -200 -71 -140 -40 -325 72
-435 98 -97 239 -130 379 -90 86 25 143 66 198 140 16 22 32 42 36 45 6 4
1159 5 1232 1 16 -1 17 -37 17 -606 l0 -605 -924 0 -924 0 -25 43 c-119 202
-432 230 -598 54 -113 -120 -124 -349 -23 -481 107 -141 311 -189 467 -109 47
23 138 105 168 150 l14 22 1010 4 c1047 4 1083 6 1119 46 9 9 19 44 24 77 4
33 9 412 11 842 2 779 2 782 -18 811 -25 35 -83 72 -120 78 -14 2 -341 5 -725
7 l-700 3 -24 29 c-110 133 -181 170 -332 178 -30 1 -68 -1 -85 -4z"/>
<path d="M15385 15150 c-70 -15 -169 -83 -214 -146 -50 -69 -68 -135 -66 -239
1 -76 5 -98 29 -143 25 -49 85 -118 148 -169 l26 -21 2 -524 c2 -854 7 -1221
19 -1264 14 -54 46 -81 106 -93 65 -13 -38 -11 983 -15 l903 -3 72 -72 c87
-86 98 -94 162 -116 189 -64 407 34 476 214 30 79 30 205 0 283 -39 101 -155
201 -258 223 -52 11 -155 8 -203 -5 -64 -17 -169 -95 -212 -158 -12 -17 -27
-23 -73 -27 -90 -8 -421 -14 -1057 -20 l-586 -6 0 794 0 793 32 22 c91 64 146
144 166 244 43 216 -71 391 -290 445 -30 8 -136 9 -165 3z"/>
<path d="M20541 15094 c-30 -8 -69 -23 -86 -34 -33 -21 -124 -113 -141 -143
-8 -13 -27 -19 -80 -23 -99 -8 -148 -32 -165 -80 -7 -22 -14 -55 -16 -74 -2
-19 -6 -386 -8 -815 -6 -1016 -8 -1105 -32 -1119 -46 -25 -147 -151 -158 -196
-23 -92 -25 -148 -8 -225 25 -111 94 -193 202 -243 49 -23 70 -26 161 -27 93
0 111 3 160 26 163 79 250 267 205 441 -20 73 -91 169 -164 220 -21 15 -23 25
-27 139 -5 163 -14 756 -18 1191 l-3 347 36 -28 c55 -43 111 -68 181 -81 169
-31 315 40 408 199 25 43 27 54 27 166 0 109 -2 124 -25 165 -30 54 -116 142
-161 166 -81 42 -198 53 -288 28z"/>
<path d="M16237 14788 c-102 -39 -208 -136 -228 -211 -14 -52 -18 -201 -7
-252 16 -70 71 -139 176 -222 25 -19 25 -23 23 -206 l-1 -78 -42 -37 c-22 -20
-51 -46 -63 -57 -108 -99 -137 -282 -68 -425 35 -73 50 -91 108 -136 66 -52
136 -72 241 -70 82 1 97 5 159 36 73 37 122 87 167 170 25 47 26 56 24 172 -2
95 -6 131 -20 158 -19 36 -126 148 -161 167 -17 10 -19 24 -22 151 l-2 140 40
28 c52 36 121 113 145 161 25 52 30 216 8 293 -13 46 -27 66 -88 125 -61 60
-83 74 -141 93 -82 28 -176 27 -248 0z"/>
<path d="M13383 14282 c-77 -27 -130 -69 -193 -153 l-35 -45 -450 -2 c-668 -3
-3011 -13 -3710 -16 l-610 -2 -48 58 c-154 186 -404 208 -568 48 -68 -66 -97
-124 -107 -213 -20 -170 53 -312 200 -392 45 -25 67 -30 144 -33 67 -3 105 0
140 12 60 20 148 84 193 141 l34 43 86 2 c47 1 133 4 191 5 479 12 4379 25
4460 15 35 -4 58 -13 67 -26 34 -48 99 -105 156 -135 59 -32 67 -33 162 -32
175 1 273 60 346 208 32 65 34 76 33 165 0 84 -4 102 -29 154 -65 130 -181
205 -328 213 -62 3 -94 -1 -134 -15z"/>
<path d="M21133 14059 c-55 -10 -117 -39 -171 -78 -56 -41 -119 -139 -128
-199 -11 -67 -7 -182 6 -217 6 -17 12 -32 12 -35 2 -23 98 -127 149 -161 l42
-28 1 -457 1 -458 -217 -310 c-119 -171 -242 -348 -274 -393 l-58 -83 -133 0
c-120 0 -135 2 -153 20 -11 11 -20 24 -20 29 0 21 -99 105 -158 133 -53 26
-78 31 -145 33 -123 4 -221 -36 -299 -123 -70 -77 -82 -113 -82 -243 0 -122 9
-159 51 -216 13 -18 22 -33 19 -33 -3 0 -65 39 -138 88 -73 48 -138 89 -143
92 -6 3 -49 28 -95 57 -101 61 -118 64 -350 68 -159 2 -175 4 -185 21 -5 11
-37 46 -70 80 -91 91 -201 126 -327 103 -101 -18 -189 -71 -239 -143 l-23 -35
-55 56 c-35 35 -79 67 -121 87 -57 27 -75 30 -150 30 -145 -2 -266 -63 -324
-163 l-28 -47 -198 -1 c-211 -1 -252 -7 -290 -48 -47 -50 -49 -79 -47 -715 2
-573 3 -596 22 -628 11 -18 39 -42 62 -53 40 -19 62 -21 308 -22 146 -1 266
-4 266 -7 1 -3 2 -189 3 -413 l1 -408 -103 2 c-100 1 -104 2 -119 28 -28 45
-116 120 -173 147 -49 24 -66 27 -156 27 -88 0 -109 -4 -160 -27 -146 -66
-224 -206 -212 -376 7 -89 41 -162 108 -228 76 -75 143 -105 239 -108 156 -5
250 43 356 183 7 9 54 14 165 18 229 8 258 12 309 38 l46 25 0 -117 c0 -138
16 -181 96 -261 106 -106 250 -141 393 -95 84 28 155 82 200 153 14 23 32 42
39 43 6 0 104 1 217 2 l205 2 148 105 c82 58 157 112 167 120 10 8 44 35 76
60 31 25 63 59 70 76 8 18 15 92 19 180 8 232 13 272 35 279 28 9 108 103 136
160 68 140 36 330 -73 432 -76 70 -137 94 -251 97 -112 4 -150 -5 -212 -47
-167 -114 -220 -303 -136 -480 39 -81 52 -97 116 -147 25 -19 48 -38 51 -43 3
-4 4 -71 2 -149 -5 -157 2 -142 -88 -204 -16 -11 -62 -43 -102 -71 l-71 -49
-162 0 c-162 1 -163 1 -178 26 -41 64 -138 139 -216 166 -118 42 -277 8 -356
-75 -3 -4 -26 -25 -51 -49 l-45 -43 1 568 c0 312 -3 596 -8 631 -7 52 -15 68
-43 96 -19 19 -51 38 -72 43 -20 5 -150 9 -288 8 l-251 0 0 413 c0 371 1 412
16 413 18 1 124 1 159 0 12 -1 32 -13 45 -28 52 -63 125 -125 177 -151 48 -24
67 -27 151 -27 90 0 99 2 171 38 55 27 88 51 118 87 l42 51 59 -56 c132 -126
299 -151 459 -70 43 22 130 104 130 123 0 4 9 17 19 29 18 19 30 20 163 18
158 -2 174 -5 236 -47 49 -33 57 -56 11 -33 -37 19 -158 19 -234 -1 -82 -22
-206 -123 -227 -185 -3 -8 -64 -12 -219 -14 -198 -2 -218 -4 -257 -24 -42 -22
-57 -43 -66 -98 -2 -15 -5 -188 -5 -383 l-1 -355 -37 -25 c-195 -133 -234
-420 -80 -582 80 -83 194 -124 317 -114 96 8 161 39 227 109 79 83 97 125 100
234 4 156 -37 248 -148 333 l-58 45 -1 270 0 271 109 -1 108 0 46 -55 c55 -67
74 -83 134 -113 115 -58 262 -55 368 8 192 113 237 384 94 565 -22 28 -37 50
-35 50 4 0 579 -364 595 -377 3 -2 5 -70 6 -152 l1 -148 -43 -27 c-154 -98
-212 -323 -126 -490 23 -44 114 -130 165 -154 99 -49 244 -51 336 -6 62 30
144 109 172 165 33 63 42 165 25 276 -10 70 -95 181 -167 219 l-28 15 -1 127
c-2 271 -9 320 -50 360 -17 16 -95 72 -174 123 -80 52 -145 96 -145 99 0 3 45
5 99 6 86 1 106 4 153 27 61 31 105 67 153 128 l33 42 104 3 c301 9 345 17
383 68 11 16 33 44 48 64 149 191 606 861 608 890 0 9 1 239 2 510 l2 493 44
34 c118 94 172 201 165 330 -13 231 -218 395 -441 354z m-1957 -2957 c-4 -3
-14 2 -24 12 -16 18 -16 18 6 6 13 -6 21 -14 18 -18z"/>
<path d="M19276 13999 c-61 -15 -202 -131 -218 -179 -5 -16 -38 -19 -276 -19
l-183 -1 -48 -47 -49 -48 5 -385 4 -385 -37 -20 c-46 -25 -126 -114 -156 -174
-32 -66 -33 -234 -1 -303 44 -97 102 -151 211 -197 197 -83 437 35 497 244 44
151 -14 304 -162 426 l-32 26 -1 272 -1 271 106 0 c97 0 107 -2 123 -22 47
-61 129 -132 180 -156 80 -37 207 -41 292 -9 140 52 225 172 234 328 7 118
-28 214 -104 288 -70 68 -135 94 -250 97 -52 2 -112 -1 -134 -7z"/>
<path d="M8828 13484 c-80 -19 -129 -45 -186 -103 -81 -81 -97 -125 -97 -261
0 -133 14 -173 87 -248 122 -128 287 -160 452 -87 44 19 150 121 161 154 6 21
7 21 821 21 l814 0 0 -32 c1 -18 1 -102 2 -187 2 -222 14 -268 78 -293 37 -14
200 -18 1067 -22 l782 -4 73 -74 c40 -40 95 -84 122 -98 44 -22 62 -25 160
-25 107 0 113 1 174 34 75 41 135 103 170 179 24 51 27 68 26 162 -1 120 -12
151 -84 233 -64 72 -118 105 -200 123 -72 16 -189 5 -245 -23 -63 -32 -135
-95 -156 -136 -12 -23 -25 -44 -29 -47 -6 -4 -1586 -5 -1612 -1 -3 1 -7 58 -8
129 -1 70 -3 169 -4 220 l-2 93 -49 44 -50 44 -850 2 c-467 0 -870 2 -895 4
-25 1 -55 3 -68 4 -12 0 -30 11 -40 23 -54 67 -97 107 -139 130 -89 49 -183
63 -275 42z"/>
<path d="M19479 12976 c-2 -2 -37 -6 -77 -9 -93 -7 -151 -35 -223 -106 -86
-87 -101 -126 -103 -281 l-2 -130 -125 -125 -124 -126 -1833 3 -1833 3 -27 35
c-82 105 -160 153 -270 163 -188 19 -356 -88 -405 -258 -22 -77 -15 -197 16
-267 32 -71 103 -143 180 -183 65 -33 78 -45 49 -45 -42 0 -176 -105 -209
-164 -15 -27 -70 -30 -883 -42 -278 -4 -654 -8 -836 -8 l-330 -1 -70 71 c-91
93 -166 129 -276 133 -158 7 -302 -90 -359 -240 -36 -94 -24 -251 24 -324 76
-114 178 -173 312 -180 123 -6 205 31 313 144 46 47 59 55 95 57 161 10 1157
27 1640 28 349 1 359 0 369 -19 20 -38 123 -130 171 -154 41 -20 64 -23 145
-23 119 0 167 12 229 58 116 86 161 186 157 342 -3 80 -44 169 -108 232 -47
47 -119 90 -149 90 -28 0 -14 13 59 56 37 21 87 62 112 91 24 28 56 55 71 58
14 4 771 9 1681 11 910 2 1749 5 1863 8 260 6 219 -16 509 269 l90 87 86 1
c133 1 188 14 254 61 59 43 92 83 126 155 23 51 27 70 27 153 0 81 -4 103 -26
150 -50 105 -163 201 -254 216 -22 3 -43 8 -46 10 -3 2 -8 2 -10 0z"/>
<path d="M13993 12958 c-82 -9 -142 -36 -203 -94 -92 -86 -137 -224 -111 -342
22 -103 85 -199 162 -248 l39 -24 0 -75 c0 -41 -1 -75 -2 -76 -26 -7 -692 -14
-1511 -14 l-1038 0 -27 35 c-90 117 -174 162 -304 166 -129 5 -220 -31 -300
-119 -96 -105 -117 -319 -42 -439 106 -168 317 -229 499 -143 48 23 156 122
166 153 5 16 226 19 1664 27 1197 7 1154 4 1195 71 23 37 27 70 34 278 3 76 6
139 8 140 2 2 20 13 42 26 52 31 122 130 142 198 24 80 15 202 -19 274 -69
146 -223 226 -394 206z"/>
<path d="M16204 11310 c-88 -20 -186 -90 -229 -164 -107 -185 -56 -413 116
-522 21 -13 39 -30 40 -37 1 -6 2 -70 3 -141 l2 -129 -52 -33 c-105 -68 -167
-183 -165 -310 3 -240 187 -400 428 -372 128 14 228 90 285 215 74 163 34 331
-105 445 -29 23 -56 45 -61 49 -5 5 -10 68 -11 141 l-2 133 36 30 c117 99 174
194 176 293 4 131 -30 224 -109 302 -40 40 -118 85 -166 96 -41 9 -153 12
-186 4z"/>
<path d="M13833 11081 c-76 -20 -187 -110 -224 -183 -55 -107 -59 -240 -11
-342 76 -162 239 -238 430 -202 82 16 188 93 245 179 18 26 20 27 118 27 l100
0 45 -97 c77 -164 228 -491 289 -623 31 -69 79 -172 106 -229 27 -57 49 -105
49 -106 0 -3 90 -198 175 -380 18 -39 55 -120 83 -180 28 -61 76 -164 107
-230 69 -146 76 -163 67 -167 -4 -2 -17 -16 -29 -33 -76 -109 -73 -300 7 -422
68 -103 173 -155 315 -156 115 -1 190 30 264 107 78 83 101 139 103 254 2 61
10 79 21 45 3 -10 25 -62 50 -115 l44 -97 -33 -58 c-71 -125 -76 -261 -14
-383 22 -43 113 -136 154 -157 54 -28 119 -40 199 -37 271 10 430 284 313 539
-44 97 -159 185 -262 201 -34 5 -45 12 -62 43 -11 20 -100 218 -197 441 -98
223 -185 423 -195 445 -10 22 -48 110 -85 195 -37 85 -76 175 -87 200 -11 25
-26 59 -33 75 -7 17 -24 55 -38 85 -13 30 -48 109 -77 175 -28 66 -58 134 -66
150 -7 17 -35 82 -62 145 l-49 114 32 56 c48 84 55 113 52 213 -3 76 -8 102
-30 148 -30 63 -100 137 -168 177 -41 24 -53 26 -174 27 l-130 2 -67 -49
c-137 -99 -170 -165 -170 -333 0 -66 5 -90 27 -137 53 -111 116 -166 244 -208
92 -30 70 9 301 -525 29 -66 60 -138 70 -160 10 -22 41 -94 70 -160 28 -66 65
-148 81 -183 16 -35 29 -65 29 -67 0 -2 48 -111 106 -242 59 -131 115 -258
125 -281 l19 -44 -64 51 c-70 56 -142 91 -187 91 -32 0 -56 30 -101 130 -14
30 -41 89 -61 130 -19 41 -55 120 -80 175 -69 153 -95 210 -153 334 -30 62
-54 115 -54 118 0 2 -17 41 -39 86 -21 45 -50 107 -64 137 -14 30 -82 178
-151 329 -69 150 -126 275 -126 277 0 4 -111 238 -153 323 -18 35 -48 81 -67
102 -44 46 -94 57 -279 61 l-134 3 -76 75 c-59 59 -90 81 -136 99 -65 25 -196
36 -252 22z"/>
<path d="M14897 7154 c-1 -1 -42 -5 -92 -8 -151 -11 -204 -17 -395 -41 -46 -6
-209 -32 -245 -39 -11 -2 -40 -7 -65 -12 -25 -4 -47 -8 -50 -9 -3 -1 -25 -5
-50 -10 -25 -5 -47 -9 -50 -10 -3 -1 -32 -7 -65 -14 -252 -54 -902 -239 -1040
-297 -19 -8 -38 -15 -42 -15 -9 -2 -7 -1 -103 -33 -146 -49 -543 -192 -770
-279 -80 -30 -289 -109 -465 -175 -482 -182 -1426 -542 -1470 -562 -11 -4 -85
-34 -165 -65 -363 -143 -762 -371 -1025 -586 -135 -111 -319 -285 -414 -393
-146 -166 -304 -389 -419 -591 -60 -106 -116 -224 -110 -230 3 -3 56 34 119
81 63 47 123 92 134 100 607 440 1224 769 1970 1049 55 21 109 41 120 45 119
47 495 171 756 250 291 88 636 179 1004 265 142 33 316 70 550 116 276 54 261
52 395 74 52 9 106 18 120 21 21 3 86 14 299 49 13 2 45 7 70 11 25 4 54 8 65
10 10 2 44 6 75 10 31 3 59 8 62 10 44 26 1090 26 1225 0 12 -2 45 -7 75 -11
30 -3 61 -8 69 -10 8 -2 35 -7 60 -10 417 -56 1006 -227 1400 -406 118 -54
383 -189 470 -239 47 -27 92 -53 101 -57 95 -47 546 -352 670 -453 145 -119
196 -162 329 -279 156 -137 367 -323 498 -440 39 -35 81 -71 93 -82 11 -10 53
-47 93 -82 39 -35 87 -77 106 -93 19 -16 37 -31 40 -35 3 -3 25 -24 51 -45 25
-21 71 -61 104 -89 32 -27 63 -55 69 -60 14 -13 357 -298 415 -345 235 -188
678 -507 816 -586 11 -6 81 -47 155 -91 163 -96 433 -232 590 -297 63 -27 124
-52 135 -57 36 -16 259 -86 310 -98 28 -7 66 -16 85 -21 119 -31 658 -34 860
-5 14 2 43 7 65 10 111 15 299 60 445 107 412 132 831 385 1116 673 85 87 194
212 194 224 0 9 -19 7 -75 -10 -16 -4 -41 -10 -55 -13 -14 -2 -56 -12 -95 -21
-38 -10 -86 -19 -105 -22 -19 -2 -51 -8 -70 -13 -19 -5 -62 -12 -95 -16 -33
-3 -68 -8 -79 -10 -18 -3 -76 -10 -161 -19 -157 -17 -567 -23 -673 -11 -23 3
-75 8 -115 12 -115 10 -117 10 -227 29 -136 22 -360 76 -475 113 -220 72 -393
153 -677 317 -90 52 -200 122 -412 264 -136 91 -256 171 -265 176 -9 6 -18 12
-21 15 -3 3 -85 65 -183 139 -152 114 -433 342 -532 432 -16 15 -39 36 -51 46
-40 34 -159 141 -189 169 -72 67 -259 240 -275 254 -10 9 -86 81 -170 160 -84
80 -169 161 -190 180 -20 19 -113 107 -206 195 -93 88 -200 189 -238 225 -39
36 -79 74 -91 85 -38 36 -189 173 -215 195 -40 34 -142 124 -154 135 -11 10
-109 91 -136 112 -8 6 -40 31 -70 55 -169 135 -442 325 -569 396 -13 8 -40 23
-60 34 -20 11 -40 24 -46 28 -33 25 -312 158 -475 225 -158 65 -575 190 -710
211 -14 2 -59 11 -100 18 -41 8 -97 17 -123 21 -27 4 -56 8 -66 10 -16 3 -124
15 -186 20 -172 15 -243 18 -458 20 -136 1 -248 1 -250 -1z"/>
</g>
</svg>
